<?xml version="1.0" encoding="UTF-8" standalone="no"?>
<!DOCTYPE svg PUBLIC "-//W3C//DTD SVG 1.1//EN" "http://www.w3.org/Graphics/SVG/1.1/DTD/svg11.dtd">
<svg width="100%" height="100%" viewBox="0 0 528 70" version="1.1" xmlns="http://www.w3.org/2000/svg" xmlns:xlink="http://www.w3.org/1999/xlink" xml:space="preserve" xmlns:serif="http://www.serif.com/" style="fill-rule:evenodd;clip-rule:evenodd;stroke-linejoin:round;stroke-miterlimit:2;">
    <g>
        <g>
            <path d="M18.506,59.203C24.345,59.203 28.851,57.091 32.297,53.149L27.23,47.944C25.121,50.197 22.445,51.392 19,51.392C13.02,51.392 9.008,46.396 9.008,39.71C9.008,33.238 13.091,28.102 18.857,28.102C21.884,28.102 24.484,29.227 26.599,31.268L31.877,25.781C28.779,22.403 24.208,20.291 19,20.291C8.444,20.291 -0,29.016 -0,39.922C0,51.32 8.303,59.203 18.506,59.203" style="fill:white;fill-rule:nonzero;"/>
            <path d="M54.628,51.533C48.154,51.533 44.003,46.396 44.003,39.71C44.003,33.378 48.013,27.96 54.628,27.96C61.099,27.96 65.249,33.097 65.249,39.78C65.249,46.115 61.24,51.533 54.628,51.533M54.487,59.203C65.674,59.203 74.116,50.408 74.116,39.568C74.116,28.593 66.165,20.291 54.769,20.291C43.581,20.291 35.138,29.086 35.138,39.922C35.137,50.901 43.088,59.203 54.487,59.203" style="fill:white;fill-rule:nonzero;"/>
            <path d="M105.338,58.498L111.671,37.88C112.796,34.292 113.642,30.211 113.642,30.211L113.781,30.211C113.781,30.211 113.854,34.292 114.203,38.375L115.894,58.498L124.195,58.498L120.535,20.925L109.629,20.925L103.929,39.568C103.017,42.599 102.031,46.465 102.031,46.465C102.031,46.465 101.049,42.599 100.06,39.501L94.291,20.925L83.174,20.925L79.515,58.498L87.325,58.498L89.013,38.234C89.365,34.292 89.438,30.211 89.438,30.211L89.577,30.211C89.577,30.211 90.494,34.292 91.618,38.022L97.951,58.498L105.338,58.498Z" style="fill:white;fill-rule:nonzero;"/>
            <path d="M157.755,58.498L164.087,37.88C165.214,34.292 166.058,30.211 166.058,30.211L166.199,30.211C166.199,30.211 166.272,34.292 166.622,38.375L168.309,58.498L176.614,58.498L172.955,20.925L162.049,20.925L156.351,39.568C155.435,42.599 154.451,46.465 154.451,46.465C154.451,46.465 153.465,42.599 152.478,39.501L146.709,20.925L135.594,20.925L131.932,58.498L139.744,58.498L141.433,38.234C141.783,34.292 141.856,30.211 141.856,30.211L141.995,30.211C141.995,30.211 142.911,34.292 144.036,38.022L150.368,58.498L157.755,58.498Z" style="fill:white;fill-rule:nonzero;"/>
            <path d="M185.604,58.498L210.018,58.498L210.018,51.322L193.764,51.322L193.764,43.087L207.556,43.087L207.556,36.053L193.764,36.053L193.764,28.102L209.807,28.102L209.807,20.924L185.604,20.924L185.604,58.498Z" style="fill:white;fill-rule:nonzero;"/>
            <path d="M238.135,32.956C238.135,36.473 235.81,37.952 231.237,37.952L227.86,37.952L227.86,27.959L231.237,27.959C235.598,27.959 238.135,29.298 238.135,32.956M248.195,58.498L238.979,43.369C243.829,41.541 246.574,37.81 246.574,32.956C246.574,25.356 242.285,20.924 230.954,20.924L219.698,20.924L219.698,58.497L227.859,58.497L227.859,44.847L230.463,44.847L238.484,58.497L248.195,58.497L248.195,58.498Z" style="fill:white;fill-rule:nonzero;"/>
            <path d="M253.013,58.498L279.187,58.498L279.187,51.322L263.287,51.322L278.834,27.116L278.834,20.924L253.366,20.924L253.366,28.102L268.563,28.102L253.013,52.306L253.013,58.498Z" style="fill:white;fill-rule:nonzero;"/>
            <path d="M295.824,43.019L301.877,43.019C305.532,43.019 307.855,44.142 307.855,47.098C307.855,49.986 306.028,51.462 301.877,51.462L295.824,51.462L295.824,43.019ZM295.824,27.959L300.538,27.959C303.141,27.959 305.743,28.802 305.743,31.9C305.743,34.923 303.495,36.123 300.889,36.123L295.825,36.123L295.825,27.959L295.824,27.959ZM287.662,58.498L302.014,58.498C308.701,58.498 316.159,55.473 316.159,47.665C316.159,42.811 313.063,39.568 308.138,38.938L308.138,38.869C312.008,37.669 314.403,34.716 314.403,30.565C314.403,22.401 307.225,20.925 300.675,20.925L287.663,20.925L287.663,58.498L287.662,58.498Z" style="fill:white;fill-rule:nonzero;"/>
            <path d="M327.122,58.498L329.725,50.829L344.358,50.829L346.961,58.498L355.758,58.498L342.39,20.926L332.256,20.926L318.887,58.498L327.122,58.498ZM341.967,43.792L332.115,43.792L335.425,33.868C336.341,31.054 337.046,28.52 337.046,28.52C337.046,28.52 337.743,31.054 338.662,33.799L341.967,43.792Z" style="fill:white;fill-rule:nonzero;"/>
            <path d="M360.856,58.498L368.46,58.498L368.46,40.628C368.46,37.248 368.246,33.802 368.246,33.802C368.246,33.802 370.008,36.825 371.976,39.779L384.711,58.498L391.96,58.498L391.96,20.924L384.358,20.924L384.358,37.952C384.358,41.331 384.569,44.778 384.569,44.778C384.569,44.778 382.811,41.752 380.838,38.796L368.668,20.925L360.856,20.925L360.856,58.498Z" style="fill:white;fill-rule:nonzero;"/>
            <path d="M400.99,20.926L400.99,58.498L409.152,58.498L409.152,40.908L421.184,58.498L431.246,58.498L417.455,38.375L429.906,20.926L420.479,20.926L409.152,37.81L409.152,20.926L400.99,20.926Z" style="fill:white;fill-rule:nonzero;"/>
        </g>
        <g id="Bildmarke_1_" transform="matrix(0.428836,0,0,0.428836,414.09,-32.9205)">
            <path id="Überlappung_Verlauf_rechts_1_" d="M183.3,85C187,82.6 191.3,81 194.8,80.6C197.4,80.3 205.9,80.4 215.7,80.4C215.7,80.4 215.8,80.4 215.8,80.5L215.5,80.1C215.5,80.1 215.4,80 214.6,80L196.1,80C193.5,80 183.5,80 172,94C172.2,94.2 172.3,94.4 172.4,94.5C175.6,91.1 179.3,87.6 183.3,85Z" style="fill:url(#_Radial1);fill-rule:nonzero;"/>
            <path d="M201.6,80L129.1,80L92.9,142.8L81.5,162.5L80.2,164.8L80,165.1L80,165.2L114.9,225.6C114.8,225.2 114.5,224.7 114.5,224.7C113.8,223.3 113.2,222.3 112.9,221.6C111.5,218.3 110.6,213.8 110.9,209.4C111.5,197.8 117.6,186.4 120.7,181C128,168.4 142,144.1 142,144.1C142,144.1 156,119.8 163.3,107.2C166.4,101.8 173.2,90.8 182.9,84.5C186.6,82.1 190.9,80.6 194.5,80.2C195.7,80.1 198.1,80 201.2,80L201.6,80Z" style="fill:url(#_Radial2);fill-rule:nonzero;"/>
            <path d="M257.6,177.5C256,180.2 254.7,182.3 254,183.2C251.9,186.1 248.4,189.1 244.5,191.1C234.2,196.4 221.2,196.8 215,196.8L129.8,196.8C123.6,196.8 110.7,196.4 100.3,191.1C96.4,189.1 92.9,186.1 90.8,183.2C90.1,182.3 88.8,180.2 87.2,177.5C87.1,177.3 87,177.3 87,177.3L90.6,183.5L123.2,240L221.5,240C221.5,240 221.6,240 221.6,239.9L257.8,177.2C257.8,177.2 257.7,177.2 257.6,177.5Z" style="fill:url(#_Radial3);fill-rule:nonzero;"/>
            <path d="M264.7,165.1L215.6,80.1L215.5,80L201.5,80L201.2,80.1C198,80.1 195.6,80.2 194.5,80.3C191,80.7 186.6,82.2 182.9,84.6C178.8,87.2 175.3,90.7 172.3,94.2C176.5,99.1 179.5,104.1 181.3,107.3C188.6,119.9 202.6,144.2 202.6,144.2C202.6,144.2 216.6,168.5 223.9,181.1C227,186.4 233.1,197.9 233.7,209.5C233.9,213.9 233.1,218.4 231.7,221.7C231.2,222.8 230.1,224.9 228.5,227.7C228.4,227.9 228.4,228 228.4,228L264.7,165.1C264.7,165.2 264.7,165.1 264.7,165.1Z" style="fill:url(#_Radial4);fill-rule:nonzero;"/>
        </g>
    </g>
    <defs>
        <radialGradient id="_Radial1" cx="0" cy="0" r="1" gradientUnits="userSpaceOnUse" gradientTransform="matrix(142.53,0,0,142.53,231.774,221.601)"><stop offset="0" style="stop-color:rgb(255,236,92);stop-opacity:1"/><stop offset="0.6" style="stop-color:rgb(255,224,0);stop-opacity:1"/><stop offset="0.69" style="stop-color:rgb(254,221,0);stop-opacity:1"/><stop offset="0.77" style="stop-color:rgb(249,211,0);stop-opacity:1"/><stop offset="0.84" style="stop-color:rgb(241,194,0);stop-opacity:1"/><stop offset="0.9" style="stop-color:rgb(230,170,0);stop-opacity:1"/><stop offset="0.9" style="stop-color:rgb(230,170,0);stop-opacity:1"/><stop offset="1" style="stop-color:rgb(212,143,0);stop-opacity:1"/></radialGradient>
        <radialGradient id="_Radial2" cx="0" cy="0" r="1" gradientUnits="userSpaceOnUse" gradientTransform="matrix(142.284,0,0,142.284,193.677,79.8926)"><stop offset="0" style="stop-color:rgb(255,236,92);stop-opacity:1"/><stop offset="0.6" style="stop-color:rgb(255,224,0);stop-opacity:1"/><stop offset="0.69" style="stop-color:rgb(254,221,0);stop-opacity:1"/><stop offset="0.77" style="stop-color:rgb(249,211,0);stop-opacity:1"/><stop offset="0.84" style="stop-color:rgb(241,194,0);stop-opacity:1"/><stop offset="0.9" style="stop-color:rgb(230,170,0);stop-opacity:1"/><stop offset="0.9" style="stop-color:rgb(230,170,0);stop-opacity:1"/><stop offset="1" style="stop-color:rgb(212,143,0);stop-opacity:1"/></radialGradient>
        <radialGradient id="_Radial3" cx="0" cy="0" r="1" gradientUnits="userSpaceOnUse" gradientTransform="matrix(141.911,0,0,141.911,90.9457,184.064)"><stop offset="0" style="stop-color:rgb(255,236,92);stop-opacity:1"/><stop offset="0.6" style="stop-color:rgb(255,224,0);stop-opacity:1"/><stop offset="0.69" style="stop-color:rgb(254,221,0);stop-opacity:1"/><stop offset="0.77" style="stop-color:rgb(249,211,0);stop-opacity:1"/><stop offset="0.84" style="stop-color:rgb(241,194,0);stop-opacity:1"/><stop offset="0.9" style="stop-color:rgb(230,170,0);stop-opacity:1"/><stop offset="0.9" style="stop-color:rgb(230,170,0);stop-opacity:1"/><stop offset="1" style="stop-color:rgb(212,143,0);stop-opacity:1"/></radialGradient>
        <radialGradient id="_Radial4" cx="0" cy="0" r="1" gradientUnits="userSpaceOnUse" gradientTransform="matrix(142.552,0,0,142.552,231.769,221.012)"><stop offset="0" style="stop-color:rgb(255,236,92);stop-opacity:1"/><stop offset="0.6" style="stop-color:rgb(255,224,0);stop-opacity:1"/><stop offset="0.69" style="stop-color:rgb(254,221,0);stop-opacity:1"/><stop offset="0.77" style="stop-color:rgb(249,211,0);stop-opacity:1"/><stop offset="0.84" style="stop-color:rgb(241,194,0);stop-opacity:1"/><stop offset="0.9" style="stop-color:rgb(230,170,0);stop-opacity:1"/><stop offset="0.9" style="stop-color:rgb(230,170,0);stop-opacity:1"/><stop offset="1" style="stop-color:rgb(212,143,0);stop-opacity:1"/></radialGradient>
    </defs>
</svg>
